<?xml version="1.0" encoding="utf-8"?>
<!-- Generator: Adobe Illustrator 21.1.0, SVG Export Plug-In . SVG Version: 6.00 Build 0)  -->
<svg version="1.1" id="Layer_1" xmlns="http://www.w3.org/2000/svg" xmlns:xlink="http://www.w3.org/1999/xlink" x="0px" y="0px"
	 viewBox="0 0 458.4 46" style="enable-background:new 0 0 458.4 46;" xml:space="preserve">
<style type="text/css">
	.st0{fill:url(#SVGID_1_);}
	.st1{fill:url(#SVGID_2_);}
	.st2{fill:url(#SVGID_3_);}
	.st3{fill:url(#SVGID_4_);}
	.st4{fill:url(#SVGID_5_);}
	.st5{fill:url(#SVGID_6_);}
	.st6{fill:url(#SVGID_7_);}
	.st7{fill:url(#SVGID_8_);}
	.st8{fill:url(#SVGID_9_);}
	.st9{fill:url(#SVGID_10_);}
	.st10{fill:url(#SVGID_11_);}
	.st11{fill:url(#SVGID_12_);}
	.st12{fill:url(#SVGID_13_);}
	.st13{fill:url(#SVGID_14_);}
	.st14{fill:url(#SVGID_15_);}
</style>
<g>
	<linearGradient id="SVGID_1_" gradientUnits="userSpaceOnUse" x1="15.1958" y1="3.195" x2="15.1958" y2="45.3782">
		<stop  offset="0" style="stop-color:#FFA785"/>
		<stop  offset="1" style="stop-color:#FFCE85"/>
	</linearGradient>
	<path class="st0" d="M0,45.4v-1.6h4.7V4.8H0V3.2h30.4v8.5h-1.6V4.8H6.3v17.8h18.3v1.6H6.3v19.6h22.5v-6.9h1.6v8.5H0z"/>
	<linearGradient id="SVGID_2_" gradientUnits="userSpaceOnUse" x1="46.6739" y1="13.4511" x2="46.6739" y2="45.3782">
		<stop  offset="0" style="stop-color:#FFA785"/>
		<stop  offset="1" style="stop-color:#FFCE85"/>
	</linearGradient>
	<path class="st1" d="M43.3,14l0.3,5.4v1.1c0.9-2.2,2.2-4,3.9-5.2c1.7-1.2,3.8-1.9,6.3-1.9c0.4,0,0.9,0,1.2,0.1
		c0.4,0.1,0.7,0.1,1,0.2l-0.2,1.4l-2-0.2c-2.8,0-5.1,0.9-6.8,2.7c-1.7,1.8-2.9,4.2-3.4,7.1v19h4.7v1.6h-11v-1.6H42V15.6h-4.7V14H42
		H43.3z"/>
	<linearGradient id="SVGID_3_" gradientUnits="userSpaceOnUse" x1="75.7617" y1="14.0305" x2="75.7617" y2="45.3782">
		<stop  offset="0" style="stop-color:#FFA785"/>
		<stop  offset="1" style="stop-color:#FFCE85"/>
	</linearGradient>
	<path class="st2" d="M69.2,15.6h-4.1l9.1,23.1l1.5,4.2h0.2l1.5-4.2l9-23.1h-4.1V14h9.2v1.6h-3.4L76.5,45.3l0,0H75L63.4,15.6H60V14
		h9.2V15.6z"/>
	<linearGradient id="SVGID_4_" gradientUnits="userSpaceOnUse" x1="108.7318" y1="13.4511" x2="108.7318" y2="45.9866">
		<stop  offset="0" style="stop-color:#FFA785"/>
		<stop  offset="1" style="stop-color:#FFCE85"/>
	</linearGradient>
	<path class="st3" d="M117.5,45.4c-0.3-1.4-0.4-2.4-0.5-3.1c-0.1-0.7-0.1-1.4-0.1-2.2v-0.5c-1.2,1.9-2.9,3.4-5,4.6
		c-2.2,1.2-4.7,1.8-7.6,1.8c-2.9,0-5.2-0.8-6.9-2.4c-1.7-1.6-2.5-3.6-2.5-6.2c0-2.8,1.3-5.1,3.9-6.9c2.6-1.8,6-2.7,10.3-2.7h7.8
		v-4.6c0-2.6-0.8-4.6-2.5-6.1c-1.7-1.5-4-2.2-7.1-2.2c-2,0-3.8,0.3-5.6,0.8c-1.7,0.6-3.2,1.3-4.4,2.3l0,5h-1.6l0-6
		c1.5-1.1,3.2-2,5.3-2.7c2-0.7,4.1-1.1,6.3-1.1c3.4,0,6.1,0.9,8.1,2.5c2,1.7,3,4.2,3,7.4v15.7c0,0.8,0,1.6,0.1,2.4
		c0.1,0.8,0.2,1.6,0.3,2.3h3.8v1.6H117.5z M104.2,44.5c3,0,5.5-0.7,7.7-2c2.2-1.3,3.8-3.2,4.9-5.5v-7.4h-7.7c-3.8,0-6.9,0.7-9.2,2.2
		c-2.3,1.5-3.5,3.4-3.5,5.8c0,2,0.7,3.6,2.1,4.9C100,43.8,101.9,44.5,104.2,44.5z"/>
	<linearGradient id="SVGID_5_" gradientUnits="userSpaceOnUse" x1="136.5739" y1="13.4511" x2="136.5739" y2="45.3782">
		<stop  offset="0" style="stop-color:#FFA785"/>
		<stop  offset="1" style="stop-color:#FFCE85"/>
	</linearGradient>
	<path class="st4" d="M133.2,14l0.3,5.4v1.1c0.9-2.2,2.2-4,3.9-5.2c1.7-1.2,3.8-1.9,6.3-1.9c0.4,0,0.9,0,1.2,0.1
		c0.4,0.1,0.7,0.1,1,0.2l-0.2,1.4l-2-0.2c-2.8,0-5.1,0.9-6.8,2.7c-1.7,1.8-2.9,4.2-3.4,7.1v19h4.7v1.6h-11v-1.6h4.7V15.6h-4.7V14
		h4.7H133.2z"/>
	<linearGradient id="SVGID_6_" gradientUnits="userSpaceOnUse" x1="163.1267" y1="13.4511" x2="163.1267" y2="45.9866">
		<stop  offset="0" style="stop-color:#FFA785"/>
		<stop  offset="1" style="stop-color:#FFCE85"/>
	</linearGradient>
	<path class="st5" d="M163.7,46c-3.6,0-6.7-1.4-9.3-4.3c-2.6-2.9-3.9-6.5-3.9-10.8V29c0-4.5,1.3-8.2,3.8-11.2
		c2.5-2.9,5.6-4.4,9.3-4.4c3.5,0,6.4,1.2,8.6,3.5c2.2,2.3,3.3,5.4,3.3,9.3v2.4h-23.5V29v1.9c0,3.8,1.1,7,3.3,9.6
		c2.2,2.6,5,3.9,8.3,3.9c2.3,0,4.3-0.3,5.9-1c1.6-0.6,2.9-1.6,4-2.9l0.8,1.2c-1.2,1.4-2.7,2.4-4.5,3.1C168.2,45.6,166.1,46,163.7,46
		z M163.7,15c-3.1,0-5.7,1.1-7.8,3.4c-2.1,2.3-3.2,5.1-3.5,8.5l0.1,0.2h21.6v-1c0-3.2-1-5.8-2.9-8C169.3,16.1,166.8,15,163.7,15z"/>
	<linearGradient id="SVGID_7_" gradientUnits="userSpaceOnUse" x1="197.9655" y1="13.4511" x2="197.9655" y2="45.3782">
		<stop  offset="0" style="stop-color:#FFA785"/>
		<stop  offset="1" style="stop-color:#FFCE85"/>
	</linearGradient>
	<path class="st6" d="M181.9,43.8h4.7V15.6h-4.7V14h6.1l0.2,6.5c0.9-2.2,2.3-4,4.1-5.2c1.8-1.2,4.1-1.8,6.7-1.8c3.4,0,6,1.1,7.7,3.2
		c1.7,2.2,2.6,5.6,2.6,10.2v16.9h4.7v1.6h-11v-1.6h4.7V26.9c0-4.3-0.8-7.4-2.3-9.2c-1.6-1.8-3.7-2.7-6.3-2.7c-3.4,0-5.9,1-7.6,3
		c-1.7,2-2.8,4.6-3.2,7.8v18h4.7v1.6h-11V43.8z"/>
</g>
<g>
	<linearGradient id="SVGID_8_" gradientUnits="userSpaceOnUse" x1="241.6877" y1="45.1963" x2="241.6877" y2="3.0131">
		<stop  offset="0" style="stop-color:#9D85FF"/>
		<stop  offset="0.9951" style="stop-color:#C221FF"/>
	</linearGradient>
	<path class="st7" d="M260.5,3v11.2H254l-0.3-4.7h-7.8v29.7l4.5,0.9v5.1h-17.5v-5.1l4.5-0.9V9.5h-7.7l-0.3,4.7h-6.5V3H260.5z"/>
	<linearGradient id="SVGID_9_" gradientUnits="userSpaceOnUse" x1="272.8905" y1="45.1963" x2="272.8905" y2="13.2692">
		<stop  offset="0" style="stop-color:#9D85FF"/>
		<stop  offset="0.9951" style="stop-color:#C221FF"/>
	</linearGradient>
	<path class="st8" d="M262.2,40.1l4.1-0.9V19.8l-4.5-0.9v-5.1h12.4l0.4,4.6c0.7-1.6,1.7-2.9,2.8-3.8c1.2-0.9,2.5-1.4,4-1.4
		c0.4,0,0.9,0,1.4,0.1c0.5,0.1,0.9,0.2,1.2,0.2l-0.9,7.7l-3.5-0.1c-1.2,0-2.3,0.2-3.1,0.7c-0.8,0.5-1.4,1.2-1.9,2.1v15.2l4.1,0.9
		v5.1h-16.6V40.1z"/>
	<linearGradient id="SVGID_10_" gradientUnits="userSpaceOnUse" x1="300.9789" y1="45.8047" x2="300.9789" y2="13.2692">
		<stop  offset="0" style="stop-color:#9D85FF"/>
		<stop  offset="0.9951" style="stop-color:#C221FF"/>
	</linearGradient>
	<path class="st9" d="M305.9,45.2c-0.2-0.5-0.4-1.1-0.6-1.6c-0.2-0.5-0.3-1.1-0.4-1.7c-1,1.2-2.2,2.1-3.7,2.8
		c-1.4,0.7-3.1,1.1-4.9,1.1c-3.1,0-5.5-0.8-7.3-2.5c-1.8-1.7-2.7-3.9-2.7-6.8c0-2.9,1.2-5.2,3.5-6.8c2.4-1.6,5.8-2.4,10.4-2.4h4.3
		v-3.1c0-1.5-0.4-2.7-1.3-3.5c-0.9-0.8-2.2-1.2-3.9-1.2c-1,0-1.8,0.1-2.6,0.3c-0.8,0.2-1.4,0.5-1.8,0.8l-0.6,3.4H288l0-7
		c1.5-1,3.3-1.9,5.3-2.6c2-0.7,4.2-1.1,6.5-1.1c3.9,0,7,1,9.5,2.9c2.4,1.9,3.6,4.6,3.6,8.1v13c0,0.5,0,0.9,0,1.4
		c0,0.4,0,0.8,0.1,1.2l2.6,0.3v5.1H305.9z M298.6,39.5c1.3,0,2.4-0.3,3.5-0.8c1-0.5,1.9-1.2,2.4-2.1v-4.8h-4.3
		c-1.8,0-3.2,0.4-4.1,1.3c-0.9,0.8-1.4,1.9-1.4,3c0,1.1,0.3,1.9,1,2.5C296.4,39.2,297.4,39.5,298.6,39.5z"/>
	<linearGradient id="SVGID_11_" gradientUnits="userSpaceOnUse" x1="326.3728" y1="45.1963" x2="326.3728" y2="-9.094947e-13">
		<stop  offset="0" style="stop-color:#9D85FF"/>
		<stop  offset="0.9951" style="stop-color:#C221FF"/>
	</linearGradient>
	<path class="st10" d="M318.3,40.1l4.1-0.9V19.8l-4.5-0.9v-5.1h13v25.4l4.1,0.9v5.1h-16.6V40.1z M330.8,6.3h-8.5V0h8.5V6.3z"/>
	<linearGradient id="SVGID_12_" gradientUnits="userSpaceOnUse" x1="354.7074" y1="45.1963" x2="354.7074" y2="13.2692">
		<stop  offset="0" style="stop-color:#9D85FF"/>
		<stop  offset="0.9951" style="stop-color:#C221FF"/>
	</linearGradient>
	<path class="st11" d="M337.2,40.1l4.1-0.9V19.8l-4.5-0.9v-5.1h12.4l0.4,4.5c1-1.6,2.3-2.8,3.9-3.7c1.5-0.9,3.2-1.3,5.1-1.3
		c3.2,0,5.6,1,7.4,3c1.8,2,2.7,5.1,2.7,9.4v13.6l4.1,0.9v5.1h-16.2v-5.1l3.6-0.9V25.6c0-2.1-0.4-3.6-1.3-4.5
		c-0.9-0.9-2.1-1.3-3.9-1.3c-1.1,0-2.1,0.2-3,0.7c-0.9,0.5-1.6,1.1-2.2,1.9v16.8l3.4,0.9v5.1h-15.9V40.1z"/>
	<linearGradient id="SVGID_13_" gradientUnits="userSpaceOnUse" x1="388.9088" y1="45.8047" x2="388.9088" y2="13.269">
		<stop  offset="0" style="stop-color:#9D85FF"/>
		<stop  offset="0.9951" style="stop-color:#C221FF"/>
	</linearGradient>
	<path class="st12" d="M390.1,45.8c-4.5,0-8.1-1.4-10.8-4.3c-2.7-2.9-4.1-6.6-4.1-11v-1.2c0-4.7,1.3-8.5,3.8-11.5
		c2.6-3,6-4.5,10.3-4.5c4.2,0,7.5,1.3,9.9,3.8c2.3,2.5,3.5,6,3.5,10.3V32h-18.7l-0.1,0.2c0.2,2.1,0.8,3.8,2.1,5.1c1.2,1.3,2.9,2,5,2
		c1.9,0,3.4-0.2,4.7-0.6c1.2-0.4,2.6-1,4.1-1.8l2.3,5.2c-1.3,1-3,1.9-5,2.6C394.9,45.5,392.6,45.8,390.1,45.8z M389.3,19.8
		c-1.6,0-2.8,0.6-3.7,1.8c-0.9,1.2-1.5,2.8-1.7,4.7l0.1,0.1h10.4v-0.8c0-1.8-0.4-3.2-1.3-4.3C392.3,20.3,391,19.8,389.3,19.8z"/>
	<linearGradient id="SVGID_14_" gradientUnits="userSpaceOnUse" x1="417.9822" y1="45.1963" x2="417.9822" y2="13.2692">
		<stop  offset="0" style="stop-color:#9D85FF"/>
		<stop  offset="0.9951" style="stop-color:#C221FF"/>
	</linearGradient>
	<path class="st13" d="M407.3,40.1l4.1-0.9V19.8l-4.5-0.9v-5.1h12.4l0.4,4.6c0.7-1.6,1.7-2.9,2.8-3.8c1.2-0.9,2.5-1.4,4-1.4
		c0.4,0,0.9,0,1.4,0.1c0.5,0.1,0.9,0.2,1.2,0.2l-0.9,7.7l-3.5-0.1c-1.2,0-2.3,0.2-3.1,0.7c-0.8,0.5-1.4,1.2-1.9,2.1v15.2l4.1,0.9
		v5.1h-16.6V40.1z"/>
	<linearGradient id="SVGID_15_" gradientUnits="userSpaceOnUse" x1="445.4911" y1="45.8047" x2="445.4911" y2="13.3271">
		<stop  offset="0" style="stop-color:#9D85FF"/>
		<stop  offset="0.9951" style="stop-color:#C221FF"/>
	</linearGradient>
	<path class="st14" d="M457.2,24.6h-5.7l-0.9-3.9c-0.6-0.5-1.3-0.8-2.2-1.2c-0.9-0.3-1.9-0.5-2.9-0.5c-1.5,0-2.7,0.3-3.5,1
		c-0.9,0.7-1.3,1.5-1.3,2.5c0,0.9,0.4,1.7,1.2,2.4c0.8,0.6,2.5,1.2,5,1.7c3.9,0.8,6.8,1.9,8.6,3.4c1.9,1.5,2.8,3.6,2.8,6.2
		c0,2.8-1.2,5.1-3.6,6.9c-2.4,1.8-5.6,2.7-9.6,2.7c-2.4,0-4.6-0.4-6.6-1.1c-2-0.7-3.8-1.7-5.4-3l-0.1-7h5.9l1.2,4.1
		c0.5,0.4,1.2,0.7,2.1,0.9c0.9,0.2,1.8,0.3,2.7,0.3c1.7,0,3-0.3,3.9-0.9c0.9-0.6,1.3-1.5,1.3-2.5c0-0.9-0.5-1.7-1.4-2.4
		c-0.9-0.7-2.6-1.3-5-1.8c-3.7-0.8-6.5-1.9-8.4-3.3c-1.9-1.5-2.8-3.5-2.8-6c0-2.6,1.1-4.9,3.2-6.8c2.2-1.9,5.2-2.9,9.2-2.9
		c2.4,0,4.7,0.3,6.9,1c2.2,0.7,3.9,1.5,5.1,2.5L457.2,24.6z"/>
</g>
<text transform="matrix(1 0 0 1 711.3779 44.2393)" style="font-family:'RobotoSlab-Thin'; font-size:50px;">Ervaren</text>
<text transform="matrix(1 0 0 1 683.9551 128.0859)" style="font-family:'RobotoSlab-Bold'; font-size:50px;">Trainers</text>
</svg>
